<?xml version="1.0" encoding="utf-8"?>
<!-- Generator: Adobe Illustrator 26.0.3, SVG Export Plug-In . SVG Version: 6.00 Build 0)  -->
<svg version="1.1" id="Layer_1" xmlns="http://www.w3.org/2000/svg" xmlns:xlink="http://www.w3.org/1999/xlink" x="0px" y="0px"
	 viewBox="0 0 288 288" style="enable-background:new 0 0 288 288;" xml:space="preserve">
<style type="text/css">
	.st0{fill:#6667A9;}
</style>
<path class="st0" d="M198,0H90C40.3,0,0,40.3,0,90v108c0,49.7,40.3,90,90,90h108c49.7,0,90-40.3,90-90V90C288,40.3,247.7,0,198,0z
	 M96.5,217.6c-12.4,0-23.7,0-36.4,0c0-39.3,0.5-79.3,0.5-117.4c11.7-0.1,23.3,0,35.9,0C96.6,138.8,96.4,179,96.5,217.6z M78.4,83
	c0,0-0.1,0-0.1,0c-11.6-0.1-21-9.5-20.9-21.1c0.1-11.6,9.5-21,21.1-20.9c11.6,0.1,20.9,9.4,20.9,21C99.4,73.6,90,83,78.4,83z
	 M233.9,217.5c-11.7,0.1-24.5,0-36.3,0c0-16.7,0-33.7,0.1-50.3c0.1-7.1,0.6-12.8-0.6-19.7c-0.7-4.3-2.6-8.3-5.4-11.6
	c-2.4-3-4.6-5.1-9-6.1c-2.8-0.6-5.7-0.8-8.6-0.4c-2.9,0.4-5.8,1.2-8.5,2.4c-3.5,1.9-5,2.7-7.6,6c-3.5,4.5-5.5,11.2-5.8,16.2
	c0,21.7,0,41.8,0,63.5c-4,0-8,0.1-11.5,0.1c-8-0.1-15.4,0-24.3,0c0.1-38.9,0.1-78.7,0.1-117.5h33.9c0,5.4,0.1,10.5,0.1,16.1
	c7.8-10.6,19.3-16.2,31.1-17.8c12.3-1.9,24.9,0.6,33.8,7.7c11,8,17.1,22.9,17.9,34.1C234.4,167.3,233.9,191,233.9,217.5z"/>
</svg>
