<svg id="Layer_2" data-name="Layer 2" xmlns="http://www.w3.org/2000/svg" viewBox="0 0 288 288"><defs><style>.cls-1{fill:#6667a8;}</style></defs><path class="cls-1" d="M198,0H90A90,90,0,0,0,0,90V198a90,90,0,0,0,90,90H198a90,90,0,0,0,90-90V90A90,90,0,0,0,198,0ZM184.42,89.18c-4.14,0-7.84.1-11.75.16-3.08,0-4.63-.24-8.35.72-4.5,1.54-8.95,4.21-10.39,11.43-.46,8.86-.28,15-.28,24.37,10.64,0,18.67.14,29.55.14-1.76,10.93-2.64,19.22-5,30.58-9.25,0-17.11,0-24.75,0v73c-11.12,0-21-.31-32.94-.31,0-24.21.08-49.15,0-72.59-9.73,0-18-.14-27.28-.14,0-10.5-.06-19.92-.06-30.55,9.22,0,16-.29,27.23-.29,0-5.69.1-10.11.06-15.64-.07-7.72-.3-15.87,2.33-24A31.11,31.11,0,0,1,128,75.52a47.53,47.53,0,0,1,5.12-5.59c4.22-3.72,11.62-7.24,19.26-8.34,8.23-1.18,17.29-.27,31.2,1.32a.94.94,0,0,1,.84.94C184.44,72.57,184.42,80.21,184.42,89.18Z"/></svg>