<?xml version="1.0" encoding="utf-8"?>
<!-- Generator: Adobe Illustrator 26.0.3, SVG Export Plug-In . SVG Version: 6.00 Build 0)  -->
<svg version="1.1" id="Layer_1" xmlns="http://www.w3.org/2000/svg" xmlns:xlink="http://www.w3.org/1999/xlink" x="0px" y="0px"
	 viewBox="0 0 288 288" style="enable-background:new 0 0 288 288;" xml:space="preserve">
<style type="text/css">
	.st0{fill:#6667A8;}
</style>
<g>
	<g>
		<ellipse class="st0" cx="199.5" cy="218.2" rx="11.1" ry="11.1"/>
	</g>
	<g>
		<ellipse class="st0" cx="199.5" cy="62.5" rx="11.1" ry="11.1"/>
	</g>
	<g>
		<ellipse class="st0" cx="66.2" cy="140.2" rx="11.1" ry="11.1"/>
	</g>
	<g>
		<path class="st0" d="M198,0H90C40.3,0,0,40.3,0,90v108c0,49.7,40.3,90,90,90h108c49.7,0,90-40.3,90-90V90C288,40.3,247.7,0,198,0z
			 M99.5,140.2c0,2.7-0.4,5.2-1,7.8l79.2,46.1c5.8-5.2,13.3-8.6,21.8-8.6c17.9,0,32.4,14.6,32.4,32.4c0,17.9-14.6,32.4-32.4,32.4
			c-17.9,0-32.4-14.6-32.4-32.4c0-2.4,0.3-4.9,0.9-7.2l-79.1-46.2c-6,5.6-13.9,9-22.7,9c-18.4,0-33.3-14.9-33.3-33.3
			s14.9-33.3,33.3-33.3c8.8,0,16.7,3.4,22.7,9l78.3-45.7c-0.6-2.6-1-5.1-1-7.8c0-18.4,14.9-33.3,33.3-33.3s33.3,14.9,33.3,33.3
			s-14.9,33.3-33.3,33.3c-8.8,0-16.7-3.4-22.7-9l-78.3,45.7C99,135,99.5,137.5,99.5,140.2z"/>
	</g>
</g>
</svg>
