<?xml version="1.0" encoding="utf-8"?>
<!-- Generator: Adobe Illustrator 26.0.3, SVG Export Plug-In . SVG Version: 6.00 Build 0)  -->
<svg version="1.1" id="Layer_1" xmlns="http://www.w3.org/2000/svg" xmlns:xlink="http://www.w3.org/1999/xlink" x="0px" y="0px"
	 viewBox="0 0 288 288" style="enable-background:new 0 0 288 288;" xml:space="preserve">
<style type="text/css">
	.st0{fill:#6667A9;}
</style>
<g>
	<g>
		<circle class="st0" cx="144" cy="144" r="62.5"/>
	</g>
	<g>
		<path class="st0" d="M198,0H90C40.3,0,0,40.3,0,90v108c0,49.7,40.3,90,90,90h108c49.7,0,90-40.3,90-90V90C288,40.3,247.7,0,198,0z
			 M144,231.5c-48.3,0-87.5-39.2-87.5-87.5S95.7,56.5,144,56.5s87.5,39.2,87.5,87.5S192.3,231.5,144,231.5z M236,83.2
			c-12.4,0-22.5-10.1-22.5-22.5c0-12.4,10.1-22.5,22.5-22.5s22.5,10.1,22.5,22.5C258.5,73.2,248.4,83.2,236,83.2z"/>
	</g>
</g>
</svg>
